/* XPM */
static char *FE_tool[] = {
/* columns rows colors chars-per-pixel */
"39 35 4 1",
"  c #27A7DE",
". c #27A8DF",
"X c #27A9E0",
"o c None",
/* pixels */
"ooooooooooooooooooooooooooooooooooooooo",
"oooooooooooooooooo..ooooooooooooooooooo",
"ooooooooooooooooo.....ooooooooooooooooo",
"oooooooooooooooo.......oooooooooooooooo",
"ooooooooooooooo.........ooooooooooooooo",
"oooooooooooooo...........oooooooooooooo",
"ooooooooooooo.............ooooooooooooo",
"oooooooooooo...............oooooooooooo",
"ooooooooooo.................ooooooooooo",
"oooooooooo.......oo..........oooooooooo",
"ooooooooo........oooo.........ooooooooo",
"oooooooo..........ooooo........oooooooo",
"ooooooo.............oooo........ooooooo",
"oooooo...............ooo.........oooooo",
"ooooo............oo...oo..........ooooo",
"oooo............ooo...oo...........oooo",
"ooo...........oooo....oo............ooo",
"oo..........ooooo.....oo............ooo",
"oo..........ooo.......oo...X........ooo",
"ooo.........oo.............o .......ooo",
"oooo........oo...ooo.....ooo.......oooo",
"ooooo.......oo...ooooo..oooo......ooooo",
"oooooo......oo.....ooooooo.......oooooo",
"ooooooo.....oo.......ooo........ooooooo",
"oooooooo.......................oooooooo",
"ooooooooo....................oooooooooo",
"oooooooooo..................ooooooooooo",
"ooooooooooo................oooooooooooo",
"oooooooooooo..............ooooooooooooo",
"ooooooooooooo............oooooooooooooo",
"oooooooooooooo..........ooooooooooooooo",
"ooooooooooooooo........oooooooooooooooo",
"oooooooooooooooo......ooooooooooooooooo",
"ooooooooooooooooo....oooooooooooooooooo",
"ooooooooooooooooooo.ooooooooooooooooooo"
};
